<?xml version="1.0" encoding="UTF-8" standalone="no"?>
<!-- Created with Inkscape (http://www.inkscape.org/) -->

<svg
   xmlns:dc="http://purl.org/dc/elements/1.1/"
   xmlns:cc="http://creativecommons.org/ns#"
   xmlns:rdf="http://www.w3.org/1999/02/22-rdf-syntax-ns#"
   xmlns:svg="http://www.w3.org/2000/svg"
   xmlns="http://www.w3.org/2000/svg"
   xmlns:sodipodi="http://sodipodi.sourceforge.net/DTD/sodipodi-0.dtd"
   xmlns:inkscape="http://www.inkscape.org/namespaces/inkscape"
   width="1122.5197"
   height="793.70081"
   viewBox="0 0 296.99998 210.00001"
   version="1.1"
   id="svg8"
   inkscape:version="0.92.4 (5da689c313, 2019-01-14)"
   sodipodi:docname="logo.svg">
  <defs
     id="defs2" />
  <sodipodi:namedview
     id="base"
     pagecolor="#ffffff"
     bordercolor="#666666"
     borderopacity="1.0"
     inkscape:pageopacity="0.0"
     inkscape:pageshadow="2"
     inkscape:zoom="1.4"
     inkscape:cx="359.0099"
     inkscape:cy="403.47839"
     inkscape:document-units="mm"
     inkscape:current-layer="g4591"
     showgrid="false"
     inkscape:window-width="3838"
     inkscape:window-height="2102"
     inkscape:window-x="1920"
     inkscape:window-y="28"
     inkscape:window-maximized="0"
     showborder="true"
     inkscape:snap-grids="true"
     inkscape:snap-page="false"
     units="px" />
  <metadata
     id="metadata5">
    <rdf:RDF>
      <cc:Work
         rdf:about="">
        <dc:format>image/svg+xml</dc:format>
        <dc:type
           rdf:resource="http://purl.org/dc/dcmitype/StillImage" />
        <dc:title></dc:title>
      </cc:Work>
    </rdf:RDF>
  </metadata>
  <g
     inkscape:label="Layer 1"
     inkscape:groupmode="layer"
     id="layer1"
     transform="translate(0,-86.999987)">
    <rect
       style="fill:#03a9f4;fill-opacity:1;stroke:none;stroke-width:9.23031998;stroke-miterlimit:4;stroke-dasharray:none;stroke-opacity:1"
       id="rect815"
       width="291.79764"
       height="185.5863"
       x="2.6458333"
       y="98.184517"
       rx="29.093777"
       ry="32.421715" />
    <text
       xml:space="preserve"
       style="font-style:normal;font-weight:normal;font-size:10.58333302px;line-height:1.25;font-family:sans-serif;letter-spacing:0px;word-spacing:0px;fill:#000000;fill-opacity:1;stroke:none;stroke-width:0.26458332"
       x="55.5625"
       y="113.30357"
       id="text819"><tspan
         sodipodi:role="line"
         id="tspan817"
         x="55.5625"
         y="122.66734"
         style="stroke-width:0.26458332" /></text>
  </g>
  <g
     inkscape:groupmode="layer"
     id="layer2"
     inkscape:label="Layer 2"
     transform="translate(0,-86.999987)">
    <g
       id="g4591"
       transform="translate(-9.9455007,5.5151368e-6)">
      <g
         id="g4617"
         transform="matrix(1.5166994,0,0,1.6901894,-19.45681,-30.073679)">
        <path
           style="fill:#ffffff;fill-opacity:1;stroke:none;stroke-width:2.30884647;stroke-miterlimit:4;stroke-dasharray:none;stroke-opacity:1"
           d="m 98.368156,111.46141 v 38.65604 H 102.124 l 7.25795,-9.66401 7.25796,-9.66401 -7.25796,-9.66401 -7.25795,-9.66401 z"
           id="path4533"
           inkscape:connector-curvature="0" />
        <path
           inkscape:connector-curvature="0"
           id="path4563"
           style="font-style:normal;font-variant:normal;font-weight:bold;font-stretch:normal;font-size:54.36658478px;line-height:1.25;font-family:Roboto;-inkscape-font-specification:'Roboto, Bold';font-variant-ligatures:normal;font-variant-caps:normal;font-variant-numeric:normal;font-feature-settings:normal;text-align:start;letter-spacing:0px;word-spacing:0px;writing-mode:lr-tb;text-anchor:start;fill:#ffffff;fill-opacity:1;stroke:none;stroke-width:1.35918522"
           d="m 80.046272,129.81602 v 15.42334 q -1.380401,1.64586 -4.911044,3.53064 -3.504096,1.88478 -9.87518,1.88478 -7.51257,0 -12.158152,-4.85795 -4.619036,-4.8845 -4.619036,-13.83056 v -2.30952 q 0,-8.94607 4.433212,-13.83056 4.433213,-4.91105 11.786506,-4.91105 7.51257,0 11.096305,3.61028 3.583735,3.61028 4.220843,9.23807 H 72.26824 q -0.451285,-2.92008 -2.097148,-4.67212 -1.645863,-1.75205 -5.256145,-1.75205 -7.831124,0 -8.308955,10.83084 l -0.02655,3.79611 q 0,6.10562 2.256425,9.18498 2.282972,3.07935 6.848916,3.07935 2.866988,0 4.300482,-0.63711 1.433494,-0.66365 2.070602,-1.27421 v -6.66309 h -7.220562 v -5.84017 z" />
        <path
           inkscape:connector-curvature="0"
           id="path4565"
           style="font-style:normal;font-variant:normal;font-weight:bold;font-stretch:normal;font-size:54.36658478px;line-height:1.25;font-family:Roboto;-inkscape-font-specification:'Roboto, Bold';font-variant-ligatures:normal;font-variant-caps:normal;font-variant-numeric:normal;font-feature-settings:normal;text-align:start;letter-spacing:0px;word-spacing:0px;writing-mode:lr-tb;text-anchor:start;fill:#ffffff;fill-opacity:1;stroke:none;stroke-width:1.35918522"
           d="m 94.965227,111.47261 v 38.65125 h -7.963856 v -38.65125 z" />
        <path
           inkscape:connector-curvature="0"
           id="path4567"
           style="font-style:normal;font-variant:normal;font-weight:bold;font-stretch:normal;font-size:54.36658478px;line-height:1.25;font-family:Roboto;-inkscape-font-specification:'Roboto, Bold';font-variant-ligatures:normal;font-variant-caps:normal;font-variant-numeric:normal;font-feature-settings:normal;text-align:start;letter-spacing:0px;word-spacing:0px;writing-mode:lr-tb;text-anchor:start;fill:#ffffff;fill-opacity:1;stroke:none;stroke-width:1.35918522"
           d="m 151.51786,138.73554 q 0,5.5747 -3.55719,8.46824 -3.55719,2.86698 -10.14064,2.92008 h -15.02514 v -38.65125 h 13.5651 q 6.71618,0 10.51228,2.57498 3.79611,2.57498 3.79611,7.9904 0,2.62808 -1.32731,4.83141 -1.32731,2.20333 -4.1943,3.34482 3.39791,0.84948 4.8845,3.29172 1.48659,2.44225 1.48659,5.2296 z m -20.73257,-20.81221 v 9.71591 h 5.5747 q 6.31799,0 6.31799,-4.77832 0,-4.8314 -6.05253,-4.93759 z M 143.554,138.6559 q 0,-5.20305 -5.25614,-5.38887 h -7.51257 v 10.43265 h 6.79582 q 3.05281,0 4.51285,-1.43349 1.46004,-1.4335 1.46004,-3.61029 z" />
        <path
           inkscape:connector-curvature="0"
           id="path4569"
           style="font-style:normal;font-variant:normal;font-weight:bold;font-stretch:normal;font-size:54.36658478px;line-height:1.25;font-family:Roboto;-inkscape-font-specification:'Roboto, Bold';font-variant-ligatures:normal;font-variant-caps:normal;font-variant-numeric:normal;font-feature-settings:normal;text-align:start;letter-spacing:0px;word-spacing:0px;writing-mode:lr-tb;text-anchor:start;fill:#ffffff;fill-opacity:1;stroke:none;stroke-width:1.35918522"
           d="m 156.75423,117.92333 v -6.45072 h 28.98844 v 4.56595 l -19.03362,27.66112 h 19.45836 v 6.42418 h -29.41318 v -4.67213 l 19.11326,-27.5284 z" />
      </g>
    </g>
  </g>
</svg>
